# xmcd
#
# Track frame offsets: 
#        150
#        8863
#        19678
#        40343
#        58588
#        77835
#        108485
#        121635
#        133255
#        149425
#        173315
#
# Disc length: 2630 seconds
#
# Revision: 3
# Processed by: cddbd v1.5.1PL0 Copyright (c) Steve Scherf et al.
# Submitted via: ExactAudioCopy v0.95b2
#
DISCID=890a440b
DTITLE=Climax Chicago Blues Band - A Lot of Bottle
DYEAR=1970
DGENRE=Blues
TTITLE0=Country Hat
TTITLE1=Everyday
TTITLE2=Reap What I've Sowed
TTITLE3=Brief Case
TTITLE4=Alright Blue?
TTITLE5=Seventh Son
TTITLE6=Please Don't Help Me
TTITLE7=Morning Noon and Night
TTITLE8=Long Lovin' Man
TTITLE9=Louisiana Blues
TTITLE10=Cut You Loose
EXTD=YEAR: 1990 ID3G: 17
EXTT0=
EXTT1=
EXTT2=
EXTT3=
EXTT4=
EXTT5=
EXTT6=
EXTT7=
EXTT8=
EXTT9=
EXTT10=
PLAYORDER=
